<svg xmlns="http://www.w3.org/2000/svg" version="1.1" xmlns:xlink="http://www.w3.org/1999/xlink" width="1000" height="1000"><g clip-path="url(#SvgjsClipPath1066)"><rect width="1000" height="1000" fill="#ffffff"></rect><g transform="matrix(5,0,0,5,0,0)"><svg xmlns="http://www.w3.org/2000/svg" version="1.1" xmlns:xlink="http://www.w3.org/1999/xlink" width="200" height="200"><svg xmlns="http://www.w3.org/2000/svg" version="1.1" xmlns:xlink="http://www.w3.org/1999/xlink" viewBox="0 0 200 200"><rect width="200" height="200" fill="url('#gradient')"></rect><defs><linearGradient id="gradient" gradientTransform="rotate(45 0.5 0.5)"><stop offset="0%" stop-color="#00b2ff"></stop><stop offset="100%" stop-color="#00c3cd"></stop></linearGradient><clipPath id="SvgjsClipPath1066"><rect width="1000" height="1000" x="0" y="0" rx="500" ry="500"></rect></clipPath></defs><g><g fill="#ffffff" transform="matrix(5.899226139294927,0,0,5.899226139294927,26.670975216339087,141.94287350450418)" stroke="#ffffff" stroke-width="0"><path d="M4.50-14.22L4.50-2.64L10.47-2.64L10.47 0L1.07 0L1.07-14.22L4.50-14.22ZM23.79-14.22L23.79 0L20.38 0L15.34-8.85L15.34 0L11.91 0L11.91-14.22L15.34-14.22L20.37-5.37L20.37-14.22L23.79-14.22Z"></path></g></g></svg></svg></g></g></svg>